<svg viewBox="0 0 900 620" xmlns="http://www.w3.org/2000/svg">
  <style>
    .stage-title { font-family: system-ui, -apple-system, sans-serif; font-size: 18px; font-weight: 600; fill: white; }
    .skill-text { font-family: system-ui, -apple-system, sans-serif; font-size: 14px; fill: #374151; }
    .skill-pill { fill: white; stroke: #e5e7eb; stroke-width: 1; }
  </style>

  <defs>
    <marker id="arrowhead" markerWidth="10" markerHeight="7" refX="9" refY="3.5" orient="auto">
      <polygon points="0 0, 10 3.5, 0 7" fill="#9CA3AF"/>
    </marker>
  </defs>

  <!-- Stage 1: Foundations (Green) -->
  <rect x="20" y="20" width="860" height="110" rx="8" fill="white" stroke="#4ADE80" stroke-width="2"/>
  <rect x="20" y="20" width="860" height="40" rx="8" fill="#4ADE80"/>
  <rect x="20" y="52" width="860" height="8" fill="#4ADE80"/>
  <text x="40" y="48" class="stage-title">1. Foundations</text>

  <!-- Skill pills for Stage 1 -->
  <rect x="40" y="75" width="120" height="36" rx="6" class="skill-pill"/>
  <text x="100" y="98" class="skill-text" text-anchor="middle">Version Control</text>

  <rect x="170" y="75" width="80" height="36" rx="6" class="skill-pill"/>
  <text x="210" y="98" class="skill-text" text-anchor="middle">Testing</text>

  <rect x="260" y="75" width="110" height="36" rx="6" class="skill-pill"/>
  <text x="315" y="98" class="skill-text" text-anchor="middle">Code Review</text>

  <rect x="380" y="75" width="110" height="36" rx="6" class="skill-pill"/>
  <text x="435" y="98" class="skill-text" text-anchor="middle">Code Quality</text>

  <rect x="500" y="75" width="125" height="36" rx="6" class="skill-pill"/>
  <text x="562" y="98" class="skill-text" text-anchor="middle">Documentation</text>

  <rect x="635" y="75" width="105" height="36" rx="6" class="skill-pill"/>
  <text x="687" y="98" class="skill-text" text-anchor="middle">Architecture</text>

  <!-- Arrow 1 -->
  <path d="M450 130 L450 170" stroke="#9CA3AF" stroke-width="2" fill="none" marker-end="url(#arrowhead)"/>

  <!-- Stage 2: AI Interaction (Blue) -->
  <rect x="20" y="170" width="860" height="110" rx="8" fill="white" stroke="#3B82F6" stroke-width="2"/>
  <rect x="20" y="170" width="860" height="40" rx="8" fill="#3B82F6"/>
  <rect x="20" y="202" width="860" height="8" fill="#3B82F6"/>
  <text x="40" y="198" class="stage-title">2. AI Interaction</text>

  <!-- Skill pills for Stage 2 -->
  <rect x="40" y="225" width="145" height="36" rx="6" class="skill-pill"/>
  <text x="112" y="248" class="skill-text" text-anchor="middle">Prompt Engineering</text>

  <rect x="195" y="225" width="155" height="36" rx="6" class="skill-pill"/>
  <text x="272" y="248" class="skill-text" text-anchor="middle">Context Engineering</text>

  <rect x="360" y="225" width="135" height="36" rx="6" class="skill-pill"/>
  <text x="427" y="248" class="skill-text" text-anchor="middle">Model Behaviour</text>

  <rect x="505" y="225" width="120" height="36" rx="6" class="skill-pill"/>
  <text x="565" y="248" class="skill-text" text-anchor="middle">Tool Behaviour</text>

  <!-- Arrow 2 -->
  <path d="M450 280 L450 320" stroke="#9CA3AF" stroke-width="2" fill="none" marker-end="url(#arrowhead)"/>

  <!-- Stage 3: Workflow Integration (Orange) -->
  <rect x="20" y="320" width="860" height="110" rx="8" fill="white" stroke="#FB923C" stroke-width="2"/>
  <rect x="20" y="320" width="860" height="40" rx="8" fill="#FB923C"/>
  <rect x="20" y="352" width="860" height="8" fill="#FB923C"/>
  <text x="40" y="348" class="stage-title">3. Workflow Integration</text>

  <!-- Skill pills for Stage 3 -->
  <rect x="40" y="375" width="100" height="36" rx="6" class="skill-pill"/>
  <text x="90" y="398" class="skill-text" text-anchor="middle">Tool Config</text>

  <rect x="150" y="375" width="95" height="36" rx="6" class="skill-pill"/>
  <text x="197" y="398" class="skill-text" text-anchor="middle">Specs First</text>

  <rect x="255" y="375" width="105" height="36" rx="6" class="skill-pill"/>
  <text x="307" y="398" class="skill-text" text-anchor="middle">TDD with AI</text>

  <rect x="370" y="375" width="115" height="36" rx="6" class="skill-pill"/>
  <text x="427" y="398" class="skill-text" text-anchor="middle">Review Gates</text>

  <rect x="495" y="375" width="115" height="36" rx="6" class="skill-pill"/>
  <text x="552" y="398" class="skill-text" text-anchor="middle">Small Batches</text>

  <rect x="620" y="375" width="95" height="36" rx="6" class="skill-pill"/>
  <text x="667" y="398" class="skill-text" text-anchor="middle">Guardrails</text>

  <!-- Arrow 3 -->
  <path d="M450 430 L450 470" stroke="#9CA3AF" stroke-width="2" fill="none" marker-end="url(#arrowhead)"/>

  <!-- Stage 4: Advanced / Agentic (Pink/Magenta) -->
  <rect x="20" y="470" width="860" height="110" rx="8" fill="white" stroke="#DB2777" stroke-width="2"/>
  <rect x="20" y="470" width="860" height="40" rx="8" fill="#DB2777"/>
  <rect x="20" y="502" width="860" height="8" fill="#DB2777"/>
  <text x="40" y="498" class="stage-title">4. Advanced / Agentic</text>

  <!-- Skill pills for Stage 4 -->
  <rect x="40" y="525" width="130" height="36" rx="6" class="skill-pill"/>
  <text x="105" y="548" class="skill-text" text-anchor="middle">Agentic Workflows</text>

  <rect x="180" y="525" width="138" height="36" rx="6" class="skill-pill"/>
  <text x="249" y="548" class="skill-text" text-anchor="middle">Task Decomposition</text>

  <rect x="328" y="525" width="120" height="36" rx="6" class="skill-pill"/>
  <text x="388" y="548" class="skill-text" text-anchor="middle">Agent Guardrails</text>

  <rect x="458" y="525" width="145" height="36" rx="6" class="skill-pill"/>
  <text x="530" y="548" class="skill-text" text-anchor="middle">Culture Codification</text>

  <rect x="613" y="525" width="90" height="36" rx="6" class="skill-pill"/>
  <text x="658" y="548" class="skill-text" text-anchor="middle">Multi-Agent</text>

  <rect x="713" y="525" width="130" height="36" rx="6" class="skill-pill"/>
  <text x="778" y="548" class="skill-text" text-anchor="middle">CI/CD Integration</text>
</svg>
